# xmcd
#
# Track frame offsets:
#	150
#	18271
#	40311
#	62569
#	87220
#	109752
#	129632
#	154558
#	175090
#
# Disc length: 2698 seconds
#
# Revision: 1
# Processed by: cddbd v1.5.2PL0 Copyright (c) Steve Scherf et al.
# Submitted via: audiograbber 1.83.01
#
DISCID=670a8809
DTITLE=Tony Joe White - Rain Crow
DYEAR=2016
DGENRE=SwampRock
TTITLE0=Hoochie Woman
TTITLE1=The Bad Wind
TTITLE2=Rain Crow
TTITLE3=The Opening Of The Box
TTITLE4=Right Back In The Fire
TTITLE5=The Middle Of Nowhere
TTITLE6=Conjure Child
TTITLE7=Where Do They Go
TTITLE8=Tell Me A Swamp Story
EXTD=
EXTT0=
EXTT1=
EXTT2=
EXTT3=
EXTT4=
EXTT5=
EXTT6=
EXTT7=
EXTT8=
PLAYORDER=
